<svg xmlns="http://www.w3.org/2000/svg" data-name="Layer 1" viewBox="0 0 128 160" x="0px" y="0px"><title>Miscellaneous 214_Expanded</title><path d="M120,0H102a2,2,0,0,0,0,4h18a4.004,4.004,0,0,1,4,4V65a2,2,0,0,0,4,0V8A8.00917,8.00917,0,0,0,120,0Z"/><path d="M118,52a2.0001,2.0001,0,0,0,2-2V14a6.00656,6.00656,0,0,0-6-6h-6a2,2,0,0,0,0,4h6a2.00261,2.00261,0,0,1,2,2V50A2.0001,2.0001,0,0,0,118,52Z"/><path d="M77,71a2.0001,2.0001,0,0,0-2-2H15a2,2,0,0,0,0,4H75A2.0001,2.0001,0,0,0,77,71Z"/><path d="M75,59H15a2,2,0,0,0,0,4H75a2,2,0,0,0,0-4Z"/><path d="M24,51a2.0001,2.0001,0,0,0,2,2H64a2,2,0,0,0,0-4H26A2.0001,2.0001,0,0,0,24,51Z"/><path d="M58,43a2,2,0,0,0,0-4H32a2,2,0,0,0,0,4Z"/><path d="M77,21a6.00656,6.00656,0,0,0-6-6H19a6.00656,6.00656,0,0,0-6,6v6a6.00656,6.00656,0,0,0,6,6H71a6.00656,6.00656,0,0,0,6-6Zm-4,6a2.00261,2.00261,0,0,1-2,2H19a2.00261,2.00261,0,0,1-2-2V21a2.00261,2.00261,0,0,1,2-2H71a2.00261,2.00261,0,0,1,2,2Z"/><path d="M15,113H69.12592a32.76748,32.76748,0,0,1-1.57281-4H15a2,2,0,0,0,0,4Z"/><path d="M15,103H66.2511A33.12958,33.12958,0,0,1,66,99H15a2,2,0,0,0,0,4Z"/><path d="M15,93H66.55664a32.72307,32.72307,0,0,1,.99646-4H15a2,2,0,0,0,0,4Z"/><path d="M72.77527,79H15a2,2,0,0,0,0,4H70.15179A33.10511,33.10511,0,0,1,72.77527,79Z"/><path d="M8,124a4.004,4.004,0,0,1-4-4V8A4.004,4.004,0,0,1,8,4H82a4.004,4.004,0,0,1,4,4V68.6731a32.74194,32.74194,0,0,1,4-1.41534V8a8.00917,8.00917,0,0,0-8-8H8A8.00917,8.00917,0,0,0,0,8V120a8.00917,8.00917,0,0,0,8,8H82a7.98749,7.98749,0,0,0,1.113-.08673A33.13839,33.13839,0,0,1,77.49591,124Z"/><path d="M99,70a29,29,0,1,0,29,29A29.03338,29.03338,0,0,0,99,70Zm0,54a25,25,0,1,1,25-25A25.02817,25.02817,0,0,1,99,124Z"/><path d="M112.10547,88.21094l-8,4a2.00023,2.00023,0,0,0,1.78906,3.57813l8-4a2.00023,2.00023,0,0,0-1.78906-3.57812Z"/><path d="M92.998,96a2.00007,2.00007,0,0,0,.89648-3.78906l-8-4a2.00023,2.00023,0,0,0-1.78906,3.57813l8,4A1.99215,1.99215,0,0,0,92.998,96Z"/><path d="M88.62891,110.54395a2,2,0,1,0,2.74219,2.91211c4.91989-4.63083,10.33782-4.63086,15.25772-.00009a2.03561,2.03561,0,0,0,2.82724-.08488,1.99985,1.99985,0,0,0-.085-2.82715C102.97266,104.52246,95.02734,104.52246,88.62891,110.54395Z"/><text x="0" y="143" fill="#000000" font-size="5px" font-weight="bold" font-family="'Helvetica Neue', Helvetica, Arial-Unicode, Arial, Sans-serif">Created by WEBTECHOPS LLP</text><text x="0" y="148" fill="#000000" font-size="5px" font-weight="bold" font-family="'Helvetica Neue', Helvetica, Arial-Unicode, Arial, Sans-serif">from the Noun Project</text></svg>