<svg width="56" height="56" viewBox="0 0 56 56" fill="none" xmlns="http://www.w3.org/2000/svg">
<g filter="url(#filter0_b_97_6687)">
<rect width="56" height="56" rx="16" fill="white" fill-opacity="0.85"/>
</g>
<g clip-path="url(#clip0_97_6687)">
<path d="M22.4629 28.5951V29.6826C22.4629 29.6332 22.4629 29.5838 22.4629 29.5344L22.5613 34.8237V34.7248C22.5613 38.8772 28.9099 42.2386 36.6858 42.2386C44.5107 42.2386 50.8102 38.8772 50.8102 34.7248L50.9084 29.4849C50.9084 29.5344 50.9084 29.5838 50.9084 29.6332V28.5457C50.9084 28.5951 50.9084 28.6446 50.9084 28.694V27.6064C50.8102 28.5457 50.3673 29.4355 49.5797 30.2264C47.3159 32.5992 42.3946 34.2305 36.6858 34.2305C30.9769 34.2305 26.0555 32.5992 23.7917 30.2264C23.0043 29.4355 22.5613 28.5457 22.4629 27.6064V28.694C22.4629 28.694 22.4629 28.6446 22.4629 28.5951Z" fill="url(#paint0_linear_97_6687)"/>
<path d="M50.9084 29.8311C50.6625 30.3254 50.3673 30.7703 49.9244 31.2152C47.6114 33.588 42.5421 35.2193 36.6858 35.2193C30.8293 35.2193 25.7602 33.588 23.4472 31.2152C23.0043 30.7703 22.709 30.3254 22.4629 29.8311V29.5345C22.4629 29.5839 22.4629 29.6333 22.4629 29.6828V28.5952C22.4629 28.6447 22.4629 28.6941 22.4629 28.7435V27.656C22.5613 28.5952 23.0043 29.4851 23.7917 30.276C26.0555 32.6488 30.9769 34.28 36.6858 34.28C42.3946 34.28 47.3159 32.6488 49.5797 30.276C50.3673 29.4851 50.8102 28.5952 50.9084 27.656V28.7435C50.9084 28.6941 50.9084 28.6447 50.9084 28.5952V29.6828C50.9084 29.6333 50.9084 29.5839 50.9084 29.5345V29.8311Z" fill="#FF9801"/>
<path d="M22.4629 28.6446L22.5613 33.6868V33.588C22.5613 37.7403 28.9099 41.1512 36.6858 41.1512C44.5107 41.1512 50.8102 37.7898 50.8102 33.588L50.9084 28.6446C50.9084 28.6446 50.9084 28.6446 50.9084 28.5952V29.6828C50.9084 29.6333 50.9084 29.5839 50.9084 29.5345L50.8102 34.7743C50.8102 38.9267 44.4614 42.2882 36.6858 42.2882C28.8607 42.2882 22.5613 38.9267 22.5613 34.7743V34.8732L22.4629 29.5839C22.4629 29.6333 22.4629 29.6828 22.4629 29.7322V28.6446C22.4629 28.6446 22.4629 28.5952 22.4629 28.6446Z" fill="#FFD259"/>
<path d="M50.5152 27.8044C50.5152 27.8044 50.5152 27.8538 50.5152 27.8044C50.3182 28.3976 49.9738 28.9413 49.4817 29.4851C48.9895 29.9794 48.3988 30.4737 47.71 30.8692C45.2 29.2379 41.2135 28.1504 36.6859 28.1504C32.2075 28.1504 28.2211 29.2379 25.662 30.8692C24.973 30.5232 24.3825 30.0288 23.8903 29.5345C23.3982 28.9907 23.0537 28.447 22.8568 27.8538C22.8568 27.8044 22.8568 27.7055 22.8076 27.6561V27.2111C22.9553 23.4542 29.107 20.4883 36.6367 20.4883C44.1664 20.4883 50.3182 23.5037 50.466 27.2111V27.6561C50.5152 27.7055 50.5152 27.7549 50.5152 27.8044Z" fill="#FFB424"/>
<path d="M50.5152 27.8044C50.5152 27.8044 50.5152 27.8538 50.5152 27.8044C50.3182 28.3976 49.9738 28.9413 49.4817 29.4851C48.9895 29.9794 48.3988 30.4737 47.71 30.8692C45.2 29.2379 41.2135 28.1504 36.6859 28.1504C32.2075 28.1504 28.2211 29.2379 25.662 30.8692C24.973 30.5232 24.3825 30.0288 23.8903 29.5345C23.3982 28.9907 23.0537 28.447 22.8568 27.8538C22.8568 27.8044 22.8568 27.7055 22.8076 27.6561V27.2111C22.9553 23.4542 29.107 20.4883 36.6367 20.4883C44.1664 20.4883 50.3182 23.5037 50.466 27.2111V27.6561C50.5152 27.7055 50.5152 27.7549 50.5152 27.8044Z" fill="#FFB424"/>
<path d="M36.6859 27.2605C41.4597 27.2605 45.7414 28.4469 48.5958 30.3253C48.3003 30.5231 48.0052 30.7702 47.6608 30.968C45.1507 29.3367 41.1645 28.2491 36.6367 28.2491C32.1583 28.2491 28.1719 29.3367 25.6128 30.968C25.2683 30.7702 24.973 30.5725 24.6777 30.3253C27.6306 28.4469 31.9122 27.2605 36.6859 27.2605Z" fill="#FFD259"/>
<path d="M22.8568 27.2111C23.0045 23.4542 29.1562 20.4883 36.6859 20.4883C44.2157 20.4883 50.3675 23.5037 50.5152 27.2111V27.6561C50.5152 27.7055 50.5152 27.8044 50.466 27.8538C50.3675 28.101 50.269 28.3481 50.1212 28.6447V28.3481C49.9738 24.5912 44.0187 21.5758 36.6859 21.5758C29.3531 21.5758 23.3982 24.5912 23.2013 28.2987V28.5953C23.0537 28.3481 22.9553 28.101 22.8568 27.8044C22.8568 27.7549 22.8568 27.6561 22.8076 27.6066L22.8568 27.2111Z" fill="#FFD259"/>
<path d="M5.82905 29.9299L6.37041 30.8691C6.32119 30.8197 6.32119 30.8197 6.27198 30.7702L8.92954 35.3675L8.88032 35.3181C10.8981 38.9267 18.0833 38.729 24.8749 34.8732C31.7648 31.0174 35.6035 24.9371 33.5857 21.3285L31.0758 16.7312C31.0758 16.7807 31.125 16.8301 31.125 16.8301L30.5837 15.8415C30.5837 15.8909 30.6329 15.9403 30.6329 15.9403L30.0915 14.9517C30.4852 15.792 30.5345 16.7807 30.2392 17.8682C29.4025 21.0319 25.9576 24.8877 20.9377 27.7054C15.9671 30.5231 10.8981 31.5612 7.7484 30.6219C6.66569 30.3253 5.82905 29.7816 5.33691 28.9907L5.87827 29.9299C5.87827 30.0287 5.87827 29.9793 5.82905 29.9299Z" fill="url(#paint1_linear_97_6687)"/>
<path d="M31.2236 16.9784C31.2729 17.5222 31.1744 18.0659 31.0268 18.6592C30.1409 21.8723 26.5483 25.7775 21.4793 28.6446C16.361 31.5612 11.1936 32.5993 7.99467 31.7095C7.4041 31.5612 6.91196 31.314 6.46904 31.0174L6.3214 30.7702C6.3214 30.8197 6.37061 30.8197 6.41983 30.8691L5.87847 29.9299C5.87847 29.9793 5.92769 29.9793 5.9769 30.0287L5.43555 29.0895C5.9769 29.8805 6.81354 30.4242 7.84703 30.7208C10.9967 31.66 16.0658 30.6219 21.0364 27.8043C25.9578 24.9866 29.4519 21.1308 30.2886 17.9671C30.5839 16.8796 30.5347 15.8909 30.1409 15.0505L30.6823 16.0392C30.6823 15.9898 30.6331 15.9403 30.6331 15.9403L31.1744 16.929C31.1744 16.8796 31.1252 16.8301 31.1252 16.8301L31.2236 16.9784Z" fill="#FF9801"/>
<path d="M30.5343 15.8415L30.1406 15.1C30.1406 15.1 30.1406 15.1 30.1406 15.0505L30.5343 15.8415C30.5343 15.792 30.5343 15.792 30.5343 15.8415Z" fill="#FFD259"/>
<path d="M5.82867 29.8804C5.77945 29.831 5.82867 29.831 5.82867 29.8804L5.38574 29.1389L5.82867 29.8804Z" fill="#FFD259"/>
<path d="M5.87832 29.9793L8.43746 34.3294L8.38824 34.28C10.406 37.8886 17.5912 37.6908 24.3828 33.8351C31.1743 29.9793 35.013 23.899 32.9952 20.2904L30.6329 15.9403C30.6329 15.9403 30.6329 15.9403 30.6329 15.8909L31.1743 16.8795C31.1743 16.8301 31.1251 16.7807 31.1251 16.7807L33.635 21.378C35.6036 24.9371 31.7649 31.0174 24.9733 34.8732C18.1818 38.729 10.9966 38.9267 8.9788 35.3181L9.02801 35.3675L6.37046 30.7702C6.37046 30.8196 6.41967 30.8196 6.46889 30.8691L5.87832 29.9793C5.87832 29.9793 5.82911 29.9793 5.87832 29.9793Z" fill="#FFD259"/>
<path d="M29.8449 15.3966C29.8449 15.446 29.8449 15.446 29.8449 15.3966C29.9925 15.9897 29.9433 16.6818 29.7957 17.3739C29.648 18.0659 29.3527 18.758 28.959 19.45C25.957 19.2523 21.9707 20.2904 18.0335 22.5149C14.1456 24.7394 11.1928 27.6065 9.7656 30.3253C8.97815 30.3748 8.23995 30.2265 7.55096 30.0287C6.86197 29.831 6.2714 29.485 5.82847 29.0895C5.77926 29.0401 5.73005 28.9906 5.73005 28.9412L5.48397 28.5457C3.8107 25.2337 7.64939 19.5489 14.2441 15.8414C20.7895 12.134 27.6303 11.6891 29.5988 14.8528L29.7957 15.2483C29.7957 15.2977 29.8449 15.3471 29.8449 15.3966Z" fill="#FFB424"/>
<path d="M29.8449 15.3966C29.8449 15.446 29.8449 15.446 29.8449 15.3966C29.9925 15.9897 29.9433 16.6818 29.7957 17.3739C29.648 18.0659 29.3527 18.758 28.959 19.45C25.957 19.2523 21.9707 20.2904 18.0335 22.5149C14.1456 24.7394 11.1928 27.6065 9.7656 30.3253C8.97815 30.3748 8.23995 30.2265 7.55096 30.0287C6.86197 29.831 6.2714 29.485 5.82847 29.0895C5.77926 29.0401 5.73005 28.9906 5.73005 28.9412L5.48397 28.5457C3.8107 25.2337 7.64939 19.5489 14.2441 15.8414C20.7895 12.134 27.6303 11.6891 29.5988 14.8528L29.7957 15.2483C29.7957 15.2977 29.8449 15.3471 29.8449 15.3966Z" fill="#FFB424"/>
<path d="M17.5419 21.7241C21.7251 19.3513 26.0067 18.2638 29.4024 18.4615C29.2548 18.8076 29.1072 19.1536 28.9103 19.4502C25.9083 19.2524 21.9219 20.2906 17.9848 22.515C14.0969 24.7395 11.1441 27.6066 9.71686 30.3255C9.32316 30.3255 8.97865 30.276 8.58496 30.2266C10.2582 27.2606 13.4079 24.0969 17.5419 21.7241Z" fill="#FFD259"/>
<path d="M5.48397 28.5457C3.8107 25.2337 7.64939 19.5489 14.2441 15.8414C20.7895 12.134 27.6302 11.6891 29.5988 14.8528L29.7957 15.2483C29.8449 15.2977 29.8449 15.3471 29.8449 15.446C29.8941 15.6932 29.9433 15.9897 29.8941 16.2863L29.7464 16.0392C27.7779 12.8755 21.134 13.2215 14.7362 16.8301C8.3876 20.4387 4.64734 26.0246 6.36983 29.3367L6.51747 29.5838C6.2714 29.4355 6.02533 29.2872 5.82847 29.0895C5.77926 29.0401 5.73005 28.9906 5.73005 28.9412L5.48397 28.5457Z" fill="#FFD259"/>
</g>
<defs>
<filter id="filter0_b_97_6687" x="-3" y="-3" width="62" height="62" filterUnits="userSpaceOnUse" color-interpolation-filters="sRGB">
<feFlood flood-opacity="0" result="BackgroundImageFix"/>
<feGaussianBlur in="BackgroundImageFix" stdDeviation="1.5"/>
<feComposite in2="SourceAlpha" operator="in" result="effect1_backgroundBlur_97_6687"/>
<feBlend mode="normal" in="SourceGraphic" in2="effect1_backgroundBlur_97_6687" result="shape"/>
</filter>
<linearGradient id="paint0_linear_97_6687" x1="37.3503" y1="34.3896" x2="37.8178" y2="41.5585" gradientUnits="userSpaceOnUse">
<stop stop-color="#FFB424"/>
<stop offset="1" stop-color="#FF9801"/>
</linearGradient>
<linearGradient id="paint1_linear_97_6687" x1="24.104" y1="27.3766" x2="26.2858" y2="32.0519" gradientUnits="userSpaceOnUse">
<stop stop-color="#FFB424"/>
<stop offset="1" stop-color="#FF9801"/>
</linearGradient>
<clipPath id="clip0_97_6687">
<rect width="45.8182" height="29.6104" fill="white" transform="translate(5.09082 12.7273)"/>
</clipPath>
</defs>
</svg>
