<svg width="56" height="56" viewBox="0 0 56 56" fill="none" xmlns="http://www.w3.org/2000/svg">
<g filter="url(#filter0_b_97_6668)">
<rect width="56" height="56" rx="16" fill="white" fill-opacity="0.85"/>
</g>
<g clip-path="url(#clip0_97_6668)">
<path d="M39.5047 32.9697L37.4166 24.6174C37.3122 24.158 36.8946 23.824 36.4144 23.824H25.974C25.2849 23.824 24.8047 24.4713 24.9718 25.1186L27.0599 33.4709C27.1643 33.9302 27.5819 34.2643 28.0621 34.2643H38.5025C39.1915 34.2643 39.6718 33.617 39.5047 32.9697Z" fill="#FFA81F"/>
<path d="M38.5028 34.2643H28.0625V23.824H36.4148C36.895 23.824 37.3127 24.158 37.417 24.6174L39.505 32.9697C39.6722 33.617 39.192 34.2643 38.5028 34.2643Z" fill="#FF9800"/>
<path d="M29.0651 32.9697L28.0629 28.9397L26.7892 23.824H19.5855C19.1054 23.824 18.6877 24.158 18.5833 24.6174L16.4953 32.9697C16.3282 33.617 16.8084 34.2643 17.4975 34.2643H28.0629C28.7519 34.2643 29.2322 33.617 29.0651 32.9697Z" fill="url(#paint0_linear_97_6668)"/>
<path d="M29.1066 14.4276V17.5597C29.1066 18.2487 28.5846 18.6038 28.0626 18.6038C27.5406 18.6038 27.0186 18.2487 27.0186 17.5597V14.4276C27.0186 13.8429 27.4779 13.3835 28.0626 13.3835C28.6473 13.3835 29.1066 13.8429 29.1066 14.4276Z" fill="#FFA81F"/>
<path d="M19.6388 18.9341L18.5947 15.8019C18.1577 14.4908 20.141 13.8351 20.5747 15.1413L21.6187 18.2734C22.0554 19.5832 20.0772 20.2493 19.6388 18.9341Z" fill="#FFA81F"/>
<path d="M13.7857 23.6486L10.6536 21.5605C9.51269 20.7999 10.6546 19.0565 11.8119 19.8232L14.944 21.9112C16.0931 22.6774 14.9369 24.4117 13.7857 23.6486Z" fill="#FFA81F"/>
<path d="M34.3803 18.2734L35.4244 15.1413C35.8581 13.8351 37.8413 14.4908 37.4043 15.8019L36.3603 18.9341C35.9219 20.2493 33.942 19.5886 34.3803 18.2734Z" fill="#FF9800"/>
<path d="M41.0555 21.9112L44.1875 19.8231C45.3398 19.0549 46.4887 20.7985 45.3458 21.5605L42.2137 23.6485C41.05 24.4198 39.9184 22.6692 41.0555 21.9112Z" fill="#FF9800"/>
<path d="M28.0625 18.6038V13.3835C28.6472 13.3835 29.1066 13.8429 29.1066 14.4276V17.5597C29.1066 18.2487 28.5846 18.6038 28.0625 18.6038Z" fill="#FF9800"/>
<path d="M28.0625 34.2643V28.9397L29.0647 32.9697C29.2318 33.617 28.7516 34.2643 28.0625 34.2643Z" fill="#FFBC33"/>
<path d="M22.6855 41.3197C22.8508 41.9763 22.3529 42.6166 21.6731 42.6166H11.2328C10.553 42.6166 10.0551 41.9763 10.2204 41.3197L12.3084 32.9675C12.4247 32.5025 12.8417 32.1763 13.3209 32.1763H19.5851C20.0643 32.1763 20.4812 32.5026 20.5975 32.9675L22.6855 41.3197Z" fill="url(#paint1_linear_97_6668)"/>
<path d="M33.0529 32.1763H25.9743C25.4941 32.1763 25.0764 32.5103 24.9721 32.9697L22.759 41.322C22.5918 41.9693 23.0721 42.6166 23.7612 42.6166H35.663L33.0529 32.1763Z" fill="url(#paint2_linear_97_6668)"/>
<path d="M45.7794 41.3197C45.9446 41.9763 45.4468 42.6166 44.767 42.6166H34.3267C33.8475 42.6166 33.4305 42.2903 33.3143 41.8254L31.2262 33.4731C31.061 32.8166 31.5588 32.1763 32.2386 32.1763H42.6789C43.1582 32.1763 43.5752 32.5026 43.6914 32.9675L45.7794 41.3197Z" fill="#FF9800"/>
<path d="M24.7005 42.6166H20.8581L18.248 32.1763H27.3107L24.7005 42.6166Z" fill="#FFA81F"/>
<path d="M35.6631 42.6166H28.0625V32.1763H33.053L35.6631 42.6166Z" fill="#FFBC33"/>
</g>
<defs>
<filter id="filter0_b_97_6668" x="-3" y="-3" width="62" height="62" filterUnits="userSpaceOnUse" color-interpolation-filters="sRGB">
<feFlood flood-opacity="0" result="BackgroundImageFix"/>
<feGaussianBlur in="BackgroundImageFix" stdDeviation="1.5"/>
<feComposite in2="SourceAlpha" operator="in" result="effect1_backgroundBlur_97_6668"/>
<feBlend mode="normal" in="SourceGraphic" in2="effect1_backgroundBlur_97_6668" result="shape"/>
</filter>
<linearGradient id="paint0_linear_97_6668" x1="19.1489" y1="26.044" x2="27.7876" y2="36.4998" gradientUnits="userSpaceOnUse">
<stop stop-color="#FFDA45"/>
<stop offset="1" stop-color="#FFA425"/>
</linearGradient>
<linearGradient id="paint1_linear_97_6668" x1="12.8526" y1="34.3963" x2="21.505" y2="44.7794" gradientUnits="userSpaceOnUse">
<stop stop-color="#FFDA45"/>
<stop offset="1" stop-color="#FFA425"/>
</linearGradient>
<linearGradient id="paint2_linear_97_6668" x1="25.4766" y1="34.3963" x2="34.0748" y2="45.0509" gradientUnits="userSpaceOnUse">
<stop stop-color="#FFDA45"/>
<stop offset="1" stop-color="#FFA425"/>
</linearGradient>
<clipPath id="clip0_97_6668">
<rect width="35.6364" height="35.6364" fill="white" transform="translate(10.1816 10.1819)"/>
</clipPath>
</defs>
</svg>
